HIERARCHY
ROOT Hips
{
  OFFSET 279.157 85.6768 304.565
  CHANNELS 6 Xposition Yposition Zposition Zrotation Xrotation Yrotation
  JOINT LeftUpLeg
  {
    OFFSET 8.64259 1.95398 -2.38835
    CHANNELS 3 Zrotation Xrotation Yrotation
    JOINT LeftLeg
    {
      OFFSET 43.7702 0 0
      CHANNELS 3 Zrotation Xrotation Yrotation
      JOINT LeftFoot
      {
        OFFSET 40.6238 0 0
        CHANNELS 3 Zrotation Xrotation Yrotation
        JOINT LeftToeBase
        {
          OFFSET 12.7242 0 0
          CHANNELS 3 Zrotation Xrotation Yrotation
          End Site
          {
            OFFSET 0 0 0
          }
        }
      }
    }
  }
  JOINT RightUpLeg
  {
    OFFSET -8.2249 1.95398 -2.59336
    CHANNELS 3 Zrotation Xrotation Yrotation
    JOINT RightLeg
    {
      OFFSET 43.5653 0 0
      CHANNELS 3 Zrotation Xrotation Yrotation
      JOINT RightFoot
      {
        OFFSET 40.6238 0 0
        CHANNELS 3 Zrotation Xrotation Yrotation
        JOINT RightToeBase
        {
          OFFSET 12.7242 0 0
          CHANNELS 3 Zrotation Xrotation Yrotation
          End Site
          {
            OFFSET 0 0 0
          }
        }
      }
    }
  }
  JOINT Spine
  {
    OFFSET 0.165834 0.87714 6.61349
    CHANNELS 3 Zrotation Xrotation Yrotation
    JOINT Spine1
    {
      OFFSET 7.38963 1.71661e-005 0
      CHANNELS 3 Zrotation Xrotation Yrotation
      JOINT Spine2
      {
        OFFSET 11.9445 1.14441e-005 0
        CHANNELS 3 Zrotation Xrotation Yrotation
        JOINT Spine3
        {
          OFFSET 14.7254 4.19617e-005 0
          CHANNELS 3 Zrotation Xrotation Yrotation
          JOINT Spine4
          {
            OFFSET 10.9679 0 0
            CHANNELS 3 Zrotation Xrotation Yrotation
            JOINT RightShoulder
            {
              OFFSET 2.46616 -1.6653 3.69651
              CHANNELS 3 Zrotation Xrotation Yrotation
              JOINT RightArm
              {
                OFFSET 13.0012 0 0
                CHANNELS 3 Zrotation Xrotation Yrotation
                JOINT RightForeArm
                {
                  OFFSET 28.7848 1.52588e-005 0
                  CHANNELS 3 Zrotation Xrotation Yrotation
                  JOINT RightHand
                  {
                    OFFSET 26.5688 1.52588e-005 0
                    CHANNELS 3 Zrotation Xrotation Yrotation
                    End Site
                    {
                      OFFSET 0 0 0
                    }
                  }
                }
              }
            }
            JOINT LeftShoulder
            {
              OFFSET 2.38034 -1.29275 -3.7523
              CHANNELS 3 Zrotation Xrotation Yrotation
              JOINT LeftArm
              {
                OFFSET 16.3182 6.10351e-005 0
                CHANNELS 3 Zrotation Xrotation Yrotation
                JOINT LeftForeArm
                {
                  OFFSET 27.0901 0 0
                  CHANNELS 3 Zrotation Xrotation Yrotation
                  JOINT LeftHand
                  {
                    OFFSET 24.5451 1.52588e-005 0
                    CHANNELS 3 Zrotation Xrotation Yrotation
                    End Site
                    {
                      OFFSET 0 0 0
                    }
                  }
                }
              }
            }
            JOINT Neck
            {
              OFFSET 5.0226 -0.0266342 0
              CHANNELS 3 Zrotation Xrotation Yrotation
              JOINT Head
              {
                OFFSET 6.69364 2.86102e-005 0
                CHANNELS 3 Zrotation Xrotation Yrotation
                End Site
                {
                  OFFSET 0 0 0
                }
              }
            }
          }
        }
      }
    }
  }
}
MOTION
Frames:	7
Frame Time:	0.0416667
-90.8088 93.4321 37.0151 89.1479 -44.4211 85.6624 -167.726 19.0659 109.707 -30.6006 4.22442 0.262763 59.7659 1.1125 -1.78535 20.7998 -8.34182 11.8385 165.752 28.9399 72.5846 -44.6599 -18.6987 1.20306 70.7454 -6.49192 0.224189 34.6827 -2.04623 0.446695 0.319278 8.2665 -90.1077 10.3416 0.586847 -0.264955 -1.32923 0.574583 -0.290534 -23.8654 0.639351 -0.0763214 -3.85277 0.639319 -0.0763395 92.6543 -25.293 -103.01 39.0835 -1.37533 5.22327 -1.54723 -17.4573 -23.5519 -26.2768 0.707564 -12.7231 -84.7999 -49.0416 86.4192 -23.2493 7.49154 3.88882 4.89548 3.20674 -26.1348 1.88642 -0.35259 -11.409 -21.9394 17.2869 16.2562 -7.44098 17.975 9.75743 
-85.2345 91.769 30.4017 89.5423 -41.6117 88.782 -164.518 24.1238 109.815 -40.3588 4.12302 -2.07579 68.6733 5.66359 -5.07963 34.4763 -0.10766 17.544 165.703 27.3648 69.8968 -40.7617 -17.3178 0.494674 66.0498 -3.44254 1.72559 37.7625 -3.00288 -1.25062 0.4151 8.30031 -90.3932 10.2747 0.647406 -0.836567 -1.39634 0.609949 -0.86425 -23.9315 0.868877 -0.603324 -3.91882 0.868873 -0.603339 92.6765 -25.8254 -102.781 36.8076 0.795245 2.27452 -3.15588 -18.0064 -25.5056 -25.2015 0.791267 -13.7162 -84.3633 -47.7868 86.9304 -25.6846 7.62451 6.21639 5.40762 5.88353 -25.1558 0.703178 -0.293809 -11.8754 -21.3775 16.6624 11.8324 -9.05043 16.8467 11.1599 
-78.6821 92.5191 22.898 91.4161 -35.2753 91.1148 -163.052 26.1211 105.447 -47.2445 8.13603 -3.7117 77.0219 11.2953 -3.32151 29.2224 -2.57101 11.9137 167.912 21.5281 66.6096 -34.629 -15.4692 -3.92367 56.3497 2.17635 2.3069 29.7097 -0.36212 -0.827504 0.255717 8.39763 -90.517 10.0788 0.274152 -1.0498 -1.59256 0.227686 -1.06085 -24.1252 0.576966 -0.918895 -4.11252 0.57698 -0.918893 94.0442 -26.8787 -99.5194 35.1203 4.305 1.80705 -6.1158 -19.5396 -29.5443 -25.5332 0.860545 -14.5553 -85.174 -45.5617 85.3552 -26.7621 9.56362 6.61076 4.63424 8.09566 -22.6388 0.633425 -0.231786 -9.81079 -21.4091 14.4386 4.35234 -9.02633 14.1551 12.7143 
-73.0023 93.8857 15.6137 92.0499 -30.6256 91.1561 -163.631 23.6945 99.105 -47.9007 8.51539 -4.38841 80.6146 13.8041 -3.47333 26.4731 -4.2976 11.4103 173.148 21.6605 66.4829 -41.6813 -16.9304 -9.11838 61.336 -0.731083 -0.632372 15.3099 4.11492 2.32804 0.165364 8.44261 -90.4655 9.98836 0.118211 -0.933909 -1.68292 0.0770188 -0.93822 -24.2158 0.393414 -0.855221 -4.20316 0.393416 -0.855225 94.763 -26.6805 -98.0491 35.3204 4.31361 4.36013 -6.7765 -20.6032 -29.8389 -27.0092 0.852016 -14.3569 -86.2726 -45.8157 83.6576 -21.1384 12.5805 2.35692 2.03018 8.57702 -18.0362 -0.570781 -0.164307 -8.83849 -22.8842 12.1003 1.92799 -7.97241 11.9037 11.2638 
-69.023 95.6472 9.95641 92.5935 -29.6016 91.1222 -165.258 19.3216 94.1623 -44.0248 5.40643 -5.0576 81.2282 14.514 -2.40869 22.5331 -6.275 9.27399 175.01 26.415 71.3349 -46.8049 -11.8151 -6.84715 66.2488 -3.51559 -0.93119 16.5398 3.52452 2.99604 0.00438237 8.67058 -90.3543 9.53173 -0.15092 -0.690861 -2.13939 -0.18115 -0.683562 -24.6731 0.0636883 -0.704279 -4.66042 0.063702 -0.704276 94.9029 -26.0875 -97.9079 36.8214 1.48315 5.2621 -5.19526 -21.6285 -26.2219 -25.2135 0.536507 -13.6795 -86.1106 -45.2954 83.8276 -20.3742 9.84508 -0.409647 2.13172 2.87541 -18.3736 3.38861 -0.268185 -7.89942 -23.3304 11.5129 3.51363 -7.30096 11.549 9.65038 
-65.4816 97.693 5.91257 91.1804 -30.2384 91.1485 -167.522 15.7134 91.0153 -37.4052 1.65794 -5.66139 80.2739 13.7627 -1.38312 18.8084 -8.38264 8.26985 178.054 31.7687 81.6644 -47.8743 -14.5443 -4.76866 66.0225 -3.56414 -1.38871 19.7303 2.21593 4.24936 -0.185631 8.67071 -90.3027 9.53081 -0.506483 -0.561532 -2.14016 -0.530726 -0.538705 -24.6746 -0.314311 -0.687784 -4.66193 -0.314317 -0.687798 95.0077 -25.9639 -97.7147 38.8801 -0.298523 7.05047 -3.14576 -21.0944 -23.0713 -24.9266 0.35071 -12.5371 -86.2244 -44.2427 83.4692 -20.7224 7.57779 -2.95403 3.06296 -0.449997 -20.4769 1.41666 -0.308959 -10.9458 -24.5195 11.8861 3.59284 -7.87771 11.9018 10.6336 
-61.5286 98.5181 2.77958 89.9801 -28.5213 90.2255 -169.048 12.5271 88.0249 -32.5849 1.46993 -6.73058 79.9333 13.2277 -0.807529 17.0346 -9.49522 8.1001 179.504 35.1201 91.5589 -44.6564 -18.9289 -2.66173 64.1866 -2.26693 -0.852559 20.1133 2.51324 2.45255 -0.814753 8.64932 -90.147 9.57449 -1.69067 -0.161604 -2.09539 -1.69612 -0.0870242 -24.6381 -1.56389 -0.662355 -4.62541 -1.56392 -0.662362 95.805 -25.2144 -96.1677 42.0645 -1.00284 8.78476 -1.57677 -20.1387 -20.5572 -25.5237 0.28413 -11.6573 -86.5179 -43.2949 82.8272 -20.0381 5.18792 -4.69861 5.18606 0.462721 -26.0217 1.58362 -0.41158 -13.6024 -25.0094 12.4561 3.52272 -7.98699 12.4205 12.0994 
